<svg xmlns="http://www.w3.org/2000/svg" version="1.1" xmlns:xlink="http://www.w3.org/1999/xlink" xmlns:svgjs="http://svgjs.com/svgjs" width="512" height="512"><svg version="1.1" id="SvgjsSvg1000" xmlns="http://www.w3.org/2000/svg" xmlns:xlink="http://www.w3.org/1999/xlink" x="0px" y="0px" viewBox="0 0 512 512" style="enable-background:new 0 0 512 512;" xml:space="preserve">
<g>
	<g>
		<path d="M495.82,388.687H478.2V130.761c0-21.95-17.858-39.808-39.807-39.808H73.607c-21.951,0-39.808,17.857-39.808,39.808
			v257.927H16.18c-8.936,0-16.18,7.244-16.18,16.18s7.244,16.18,16.18,16.18h479.64c8.936,0,16.18-7.244,16.18-16.18
			S504.756,388.687,495.82,388.687z M190.368,388.684h-76.954v-43.591h76.954C190.368,356.999,190.368,357.402,190.368,388.684z
			 M445.839,388.684H222.727v-14.895h192.038c8.936,0,16.18-7.244,16.18-16.18v-203.22c0-8.936-7.244-16.18-16.18-16.18H97.234
			c-8.936,0-16.18,7.244-16.18,16.18c0,11.213,0,223.089,0,234.295H66.158V130.761c0-4.106,3.342-7.448,7.448-7.448h364.786
			c4.106,0,7.447,3.341,7.447,7.448V388.684z"></path>
	</g>
</g>
<g>
</g>
<g>
</g>
<g>
</g>
<g>
</g>
<g>
</g>
<g>
</g>
<g>
</g>
<g>
</g>
<g>
</g>
<g>
</g>
<g>
</g>
<g>
</g>
<g>
</g>
<g>
</g>
<g>
</g>
</svg><style>@media (prefers-color-scheme: light) { :root { filter: none; } }
@media (prefers-color-scheme: dark) { :root { filter: invert(100%); } }
</style></svg>